<svg width="800" height="450" viewBox="0 0 800 450" fill="none" xmlns="http://www.w3.org/2000/svg">
<rect width="800" height="450" fill="#242426"/>
<path d="M75.3463 179.584L77.578 193.648C81.771 188.83 87.5194 184.858 94.8233 181.733C102.262 178.607 109.769 177.044 117.344 177.044C140.337 177.044 151.834 194.234 151.834 228.614C151.834 247.106 148.723 260.063 142.501 267.486C136.415 274.779 126.812 278.425 113.692 278.425C100.166 278.425 89.0073 275.3 80.2156 269.049C80.8918 275.69 81.0947 282.592 80.8242 289.755V313H51V179.584H75.3463ZM80.8242 208.885V253.031C91.3743 255.636 98.9487 256.938 103.547 256.938C110.175 256.938 114.706 255.115 117.141 251.468C119.711 247.822 120.996 240.204 120.996 228.614C120.996 217.284 119.846 209.666 117.547 205.759C115.247 201.722 111.189 199.704 105.373 199.704C98.7458 199.704 90.5627 202.764 80.8242 208.885Z" fill="#7B61FF"/>
<path d="M186.141 137H199.532C205.348 137 208.256 139.8 208.256 145.4V155.948C208.256 161.548 205.348 164.347 199.532 164.347H186.141C180.325 164.347 177.417 161.548 177.417 155.948V145.4C177.417 139.8 180.325 137 186.141 137ZM207.85 275.886H178.026V179.584H207.85V275.886Z" fill="#7B61FF"/>
<path d="M283.294 235.451H282.076L258.339 275.886H227.5L258.339 226.465L229.732 179.584H260.368L281.671 216.698H283.7L305.003 179.584H335.638L307.031 226.465L337.87 275.886H307.031L283.294 235.451Z" fill="#7B61FF"/>
<path d="M420.635 237.404H384.521C385.468 244.436 387.632 249.189 391.014 251.664C394.53 254.008 400.279 255.18 408.259 255.18C418.944 255.18 431.388 254.464 445.59 253.031L448.43 271.002C438.016 275.821 423.475 278.23 404.81 278.23C386.009 278.23 372.619 274.323 364.639 266.509C356.658 258.696 352.668 245.804 352.668 227.832C352.668 208.95 356.523 195.732 364.233 188.179C372.078 180.626 385.198 176.849 403.593 176.849C420.229 176.849 432.267 179.649 439.706 185.249C447.145 190.718 450.933 199.118 451.068 210.447C451.068 219.433 448.633 226.205 443.764 230.762C439.03 235.19 431.32 237.404 420.635 237.404ZM383.913 220.019H412.317C415.969 220.019 418.403 219.172 419.621 217.479C420.973 215.787 421.649 213.312 421.649 210.057C421.649 205.499 420.432 202.373 417.998 200.68C415.563 198.857 411.099 197.946 404.607 197.946C396.897 197.946 391.622 199.443 388.782 202.438C385.942 205.303 384.319 211.164 383.913 220.019Z" fill="white"/>
<path d="M498.96 179.584L500.989 193.648C513.703 182.449 526.418 176.849 539.132 176.849C552.657 176.849 561.246 182.058 564.898 192.476C576.666 182.058 588.839 176.849 601.418 176.849C610.48 176.849 617.378 179.128 622.112 183.686C626.846 188.244 629.213 194.885 629.213 203.61V275.886H599.389V212.596C599.389 208.429 598.645 205.499 597.157 203.806C595.669 202.113 592.897 201.266 588.839 201.266C585.593 201.266 582.482 201.852 579.506 203.024C576.53 204.196 572.202 206.475 566.521 209.861V275.886H537.712V212.596C537.712 208.429 536.832 205.499 535.074 203.806C533.451 202.113 530.746 201.266 526.959 201.266C521.684 201.266 514.312 204.066 504.844 209.666V275.886H475.02V179.584H498.96Z" fill="white"/>
<path d="M660.339 201.071L657.498 181.537C675.488 178.412 692.868 176.849 709.64 176.849C723.166 176.849 733.107 179.519 739.464 184.858C745.821 190.067 749 199.183 749 212.205V275.886H725.262L722.219 261.235C712.21 272.565 699.902 278.23 685.294 278.23C675.691 278.23 667.846 275.821 661.759 271.002C655.673 266.054 652.629 259.217 652.629 250.492V240.725C652.629 233.041 655.334 227.051 660.745 222.754C666.155 218.456 673.662 216.307 683.265 216.307H718.973V212.01C718.838 207.061 717.62 203.741 715.321 202.048C713.157 200.355 708.896 199.508 702.539 199.508C691.448 199.508 677.381 200.029 660.339 201.071ZM682.251 242.873V246.585C682.251 253.226 686.173 256.547 694.018 256.547C702.133 256.547 710.452 253.422 718.973 247.171V233.693H691.989C685.497 233.823 682.251 236.883 682.251 242.873Z" fill="white"/>
</svg>
